<mxfile host="app.diagrams.net" agent="Mozilla/5.0 (Windows NT 10.0; Win64; x64) AppleWebKit/537.36 (KHTML, like Gecko) Chrome/128.0.0.0 Safari/537.36" version="24.7.7">
  <diagram name="第 1 页" id="nUuuKNKcxejyRIx99wiI">
    <mxGraphModel dx="1050" dy="565" grid="1" gridSize="10" guides="1" tooltips="1" connect="1" arrows="1" fold="1" page="1" pageScale="1" pageWidth="827" pageHeight="1169" math="0" shadow="0">
      <root>
        <mxCell id="0" />
        <mxCell id="1" parent="0" />
        <mxCell id="FiRm2gf36VXY6Adg9K-5-1" value="&lt;font style=&quot;font-size: 25px;&quot;&gt;数据采集&lt;/font&gt;&lt;div&gt;&lt;span style=&quot;font-size: 25px; background-color: initial;&quot;&gt;与预处理&lt;/span&gt;&lt;/div&gt;" style="rounded=0;whiteSpace=wrap;html=1;" vertex="1" parent="1">
          <mxGeometry x="100" y="130" width="160" height="80" as="geometry" />
        </mxCell>
        <mxCell id="FiRm2gf36VXY6Adg9K-5-3" value="&lt;span style=&quot;font-size: 25px;&quot;&gt;建立雨衰-雨强模型&lt;/span&gt;" style="rounded=0;whiteSpace=wrap;html=1;" vertex="1" parent="1">
          <mxGeometry x="100" y="330" width="160" height="80" as="geometry" />
        </mxCell>
        <mxCell id="FiRm2gf36VXY6Adg9K-5-4" value="&lt;span style=&quot;font-size: 25px;&quot;&gt;可视化系&lt;/span&gt;&lt;div&gt;&lt;span style=&quot;font-size: 25px;&quot;&gt;统搭建&lt;/span&gt;&lt;/div&gt;" style="rounded=0;whiteSpace=wrap;html=1;" vertex="1" parent="1">
          <mxGeometry x="100" y="550" width="160" height="80" as="geometry" />
        </mxCell>
        <mxCell id="FiRm2gf36VXY6Adg9K-5-5" value="&lt;span style=&quot;font-size: 25px;&quot;&gt;结论分析&lt;/span&gt;" style="rounded=0;whiteSpace=wrap;html=1;" vertex="1" parent="1">
          <mxGeometry x="100" y="780" width="160" height="80" as="geometry" />
        </mxCell>
        <mxCell id="FiRm2gf36VXY6Adg9K-5-7" value="" style="rounded=0;whiteSpace=wrap;html=1;opacity=30;dashed=1;dashPattern=12 12;fillColor=#dae8fc;strokeColor=#6c8ebf;" vertex="1" parent="1">
          <mxGeometry x="320" y="30" width="840" height="280" as="geometry" />
        </mxCell>
        <mxCell id="FiRm2gf36VXY6Adg9K-5-8" value="&lt;span style=&quot;font-size: 25px;&quot;&gt;搭建的实&lt;/span&gt;&lt;div&gt;&lt;span style=&quot;font-size: 25px;&quot;&gt;验链路&lt;/span&gt;&lt;/div&gt;" style="rounded=0;whiteSpace=wrap;html=1;" vertex="1" parent="1">
          <mxGeometry x="340" y="60" width="160" height="60" as="geometry" />
        </mxCell>
        <mxCell id="FiRm2gf36VXY6Adg9K-5-9" value="&lt;span style=&quot;font-size: 25px;&quot;&gt;雨量筒&lt;/span&gt;" style="rounded=0;whiteSpace=wrap;html=1;" vertex="1" parent="1">
          <mxGeometry x="340" y="190" width="160" height="60" as="geometry" />
        </mxCell>
      </root>
    </mxGraphModel>
  </diagram>
</mxfile>
